<?xml version="1.0" standalone="no"?>
<!DOCTYPE svg PUBLIC "-//W3C//DTD SVG 20010904//EN"
 "http://www.w3.org/TR/2001/REC-SVG-20010904/DTD/svg10.dtd">
<svg version="1.0" xmlns="http://www.w3.org/2000/svg"
 width="500.000000pt" height="500.000000pt" viewBox="0 0 500.000000 500.000000"
 preserveAspectRatio="xMidYMid meet">
<metadata>
Created by potrace 1.14, written by Peter Selinger 2001-2017
</metadata>
<g transform="translate(0.000000,500.000000) scale(0.100000,-0.100000)"
fill="#000000" stroke="none">
<path d="M999 4366 c-7 -13 -4 -36 4 -36 7 0 3 -7 -7 -15 -11 -9 -14 -15 -7
-15 9 0 9 -3 -1 -14 -8 -7 -14 -33 -13 -59 0 -25 -3 -43 -7 -41 -4 2 -9 0 -13
-6 -3 -5 0 -10 7 -10 8 0 9 -3 3 -8 -6 -4 -12 -20 -14 -37 -1 -16 -8 -38 -13
-49 -7 -13 -7 -16 1 -12 7 5 9 1 5 -8 -3 -9 -9 -14 -13 -12 -3 2 -5 -10 -5
-27 1 -18 -3 -38 -9 -44 -6 -9 -5 -13 4 -13 10 0 11 -2 2 -8 -15 -9 -32 -88
-36 -164 -1 -23 -6 -33 -12 -28 -6 5 -11 -8 -12 -37 -1 -24 -8 -52 -15 -61 -9
-11 -10 -14 0 -8 7 4 12 1 12 -9 0 -9 -4 -14 -9 -11 -5 3 -11 -3 -14 -14 -3
-12 -1 -18 5 -14 6 4 6 -1 -1 -13 -6 -11 -7 -23 -4 -27 3 -3 1 -6 -7 -6 -9 0
-10 -3 -1 -13 7 -9 7 -17 0 -24 -6 -6 -12 -28 -15 -49 -3 -21 -10 -42 -17 -46
-9 -6 -8 -8 3 -8 13 0 13 -2 1 -9 -8 -5 -11 -16 -8 -25 4 -9 1 -16 -6 -16 -8
0 -6 -4 3 -10 12 -7 12 -10 1 -10 -7 0 -11 -6 -8 -15 4 -8 2 -17 -3 -20 -8 -5
-10 -14 -11 -62 0 -13 -5 -23 -10 -23 -6 0 -5 -9 2 -21 8 -15 8 -19 0 -15 -7
5 -12 -2 -13 -16 -1 -22 -4 -37 -8 -48 -1 -3 -4 -16 -6 -30 -2 -13 -10 -28
-17 -32 -6 -4 -7 -8 -2 -8 6 0 11 -9 11 -20 0 -11 -4 -20 -8 -20 -4 0 -5 -9
-3 -20 3 -13 0 -18 -7 -14 -7 5 -9 0 -6 -14 4 -12 2 -25 -4 -28 -6 -4 -5 -10
3 -15 11 -7 11 -9 1 -9 -7 0 -10 -4 -7 -10 3 -5 2 -10 -4 -10 -6 0 -7 -7 -4
-17 5 -12 3 -14 -8 -8 -11 6 -12 5 -2 -5 8 -9 9 -19 2 -32 -5 -10 -7 -23 -4
-28 3 -6 1 -10 -5 -10 -6 0 -8 -5 -5 -10 4 -6 3 -16 -2 -23 -5 -7 -9 -23 -8
-37 0 -14 -4 -28 -10 -32 -6 -5 -4 -8 4 -8 11 0 10 -4 -5 -16 -10 -8 -12 -12
-4 -8 12 6 13 5 3 -7 -6 -8 -14 -34 -16 -59 -2 -24 -10 -46 -16 -48 -9 -3 -9
-7 0 -18 6 -8 7 -14 2 -14 -5 0 -9 -12 -9 -27 1 -19 -4 -27 -13 -25 -12 3 -12
1 -1 -13 12 -14 11 -18 -1 -26 -12 -7 -12 -9 1 -9 12 0 12 -2 2 -9 -8 -4 -13
-14 -12 -22 4 -29 0 -40 -12 -33 -9 5 -9 2 1 -9 8 -10 9 -17 3 -17 -6 0 -9
-15 -8 -33 2 -17 -2 -35 -8 -39 -10 -7 -16 -35 -16 -85 0 -13 -5 -23 -10 -23
-6 0 -10 -5 -10 -11 0 -5 6 -7 13 -4 6 4 3 -1 -7 -9 -11 -9 -14 -16 -8 -16 10
0 10 -5 2 -21 -7 -11 -9 -27 -6 -35 3 -8 1 -14 -5 -14 -6 0 -7 -4 -4 -10 3 -5
0 -10 -7 -10 -10 0 -10 -2 1 -9 9 -6 10 -11 2 -15 -6 -4 -9 -11 -6 -16 3 -5 1
-11 -5 -15 -6 -4 -8 -11 -4 -16 3 -5 2 -15 -3 -22 -6 -7 -9 -27 -8 -45 0 -17
-3 -32 -8 -32 -5 0 -7 -6 -4 -14 3 -8 -1 -17 -10 -20 -11 -5 -12 -10 -5 -19 6
-7 7 -19 3 -26 -5 -7 -6 -22 -3 -34 3 -12 1 -18 -5 -14 -6 4 -10 -3 -9 -16 1
-12 0 -26 -3 -32 -3 -5 -6 -19 -6 -30 0 -11 -4 -26 -8 -32 -5 -7 -5 -17 -2
-23 3 -5 2 -10 -3 -10 -5 0 -8 -13 -7 -30 1 -17 -4 -31 -13 -35 -11 -4 -12 -9
-3 -19 9 -10 7 -16 -4 -26 -11 -9 -12 -15 -5 -20 6 -4 8 -14 4 -23 -3 -9 -10
-14 -15 -11 -5 3 -5 -6 1 -20 7 -18 6 -25 -2 -23 -6 1 -11 -8 -13 -21 -1 -12
2 -22 7 -22 5 0 6 -5 3 -10 -4 -6 -11 -8 -16 -5 -5 4 -5 -5 1 -20 5 -14 6 -24
1 -21 -5 3 -12 -1 -15 -10 -4 -10 -2 -13 6 -8 7 5 8 3 2 -7 -10 -16 -11 -20
-13 -55 0 -14 -4 -23 -9 -20 -6 4 -11 -27 -13 -87 0 -11 -5 -15 -12 -10 -8 4
-8 1 1 -9 9 -11 10 -18 2 -23 -5 -3 -10 -17 -10 -31 0 -13 -6 -24 -12 -24 -10
0 -9 -3 1 -9 9 -6 10 -11 2 -15 -6 -4 -11 -17 -11 -29 0 -12 -1 -33 -1 -45 0
-17 -4 -22 -15 -18 -10 4 -13 2 -7 -6 9 -16 12 -48 3 -48 -4 0 -7 -10 -7 -22
-1 -41 -3 -49 -12 -44 -4 3 -8 -14 -7 -37 1 -30 -5 -47 -19 -61 -17 -16 -17
-18 -3 -13 10 4 18 2 18 -3 0 -6 -5 -10 -11 -10 -6 0 -9 -7 -6 -15 4 -8 2 -17
-3 -20 -5 -3 -7 -12 -3 -20 3 -8 0 -15 -7 -15 -10 0 -10 -3 0 -15 7 -8 8 -15
2 -15 -5 0 -12 -9 -15 -20 -3 -13 0 -20 10 -20 8 0 11 -5 7 -12 -6 -10 -4 -10
7 -1 17 17 32 17 23 1 -5 -9 -2 -9 9 1 14 11 17 11 17 0 0 -10 2 -11 8 -2 8
13 29 12 51 -1 11 -7 12 -6 6 5 -8 12 -6 12 8 0 12 -9 17 -10 17 -2 0 9 6 9
23 0 21 -12 21 -11 7 6 -14 17 -13 17 5 8 11 -6 26 -8 34 -5 10 3 11 0 5 -9
-7 -12 -5 -12 9 0 14 11 17 11 17 0 0 -11 2 -11 10 1 9 13 11 13 20 0 9 -13
10 -13 10 0 0 13 1 13 10 0 9 -14 15 -7 11 14 -1 5 5 4 13 -4 9 -7 16 -9 16
-5 0 4 8 1 17 -6 15 -12 16 -12 8 1 -8 13 -7 13 8 1 12 -9 17 -10 17 -2 0 9 6
9 22 0 22 -12 22 -11 8 6 -14 17 -14 18 7 6 13 -6 23 -9 23 -5 0 3 6 1 14 -5
10 -8 16 -9 21 -1 3 6 12 7 18 3 19 -12 37 -12 37 -1 0 7 5 6 14 -1 11 -9 16
-9 22 0 5 8 3 9 -6 4 -9 -6 -11 -4 -5 5 6 10 11 9 22 -5 7 -11 13 -14 13 -8 0
13 18 12 39 -1 10 -6 12 -5 7 2 -4 7 -3 12 3 12 5 0 13 -5 16 -10 5 -8 11 -8
20 0 10 8 15 8 20 0 5 -8 11 -8 19 -1 7 6 16 8 20 4 10 -10 46 -11 46 -1 0 5
10 3 23 -3 21 -12 21 -11 7 6 -14 17 -13 17 5 8 11 -6 26 -8 34 -5 10 3 11 0
5 -9 -7 -12 -5 -12 9 0 14 11 17 11 17 0 0 -11 2 -11 10 1 9 13 11 13 20 0 9
-13 10 -13 10 0 0 13 1 13 10 0 9 -14 15 -7 11 14 -1 5 5 4 13 -4 9 -7 16 -9
16 -5 0 4 8 1 17 -6 15 -12 16 -12 8 1 -8 13 -7 13 8 1 12 -9 17 -10 17 -2 0
9 6 9 23 0 21 -12 21 -11 7 7 -15 18 -14 18 11 2 20 -12 29 -14 38 -5 8 8 11
7 11 -3 0 -13 2 -13 10 0 8 13 10 13 10 1 0 -11 4 -10 16 5 8 10 13 14 10 8
-3 -7 1 -14 9 -18 8 -3 15 -1 15 5 0 6 9 5 23 -2 21 -12 21 -11 7 6 -14 17
-13 17 5 8 11 -6 26 -8 34 -5 10 3 11 0 5 -9 -7 -12 -5 -12 9 0 14 11 17 11
17 0 0 -11 2 -11 10 1 9 13 11 13 20 0 9 -13 10 -13 10 0 0 13 1 13 10 0 9
-14 15 -7 11 14 -1 5 5 4 13 -4 9 -7 16 -9 16 -5 0 4 8 1 17 -6 15 -12 16 -12
8 1 -8 13 -7 13 8 1 12 -9 17 -10 17 -2 0 9 6 9 23 0 21 -12 21 -11 7 6 -14
17 -13 17 5 8 11 -6 26 -8 34 -5 10 3 11 0 5 -9 -7 -12 -5 -12 9 0 14 11 17
11 17 0 0 -11 2 -11 10 1 9 13 11 13 20 0 9 -13 10 -13 10 0 0 13 1 13 10 0 9
-14 15 -7 11 14 -1 5 5 4 13 -4 9 -7 16 -9 16 -5 0 4 8 1 17 -6 15 -12 16 -12
8 1 -8 13 -7 13 8 1 12 -9 17 -10 17 -2 0 9 6 9 23 0 21 -12 21 -11 7 6 -14
17 -14 18 8 6 12 -6 22 -9 22 -5 0 3 6 1 14 -5 10 -8 16 -9 21 -1 3 6 12 7 18
3 19 -12 37 -12 37 -1 0 7 5 6 14 -1 11 -9 16 -9 22 0 5 8 3 9 -6 4 -9 -6 -11
-4 -5 5 6 10 11 9 22 -5 7 -11 13 -14 13 -8 0 13 18 12 39 -1 10 -6 12 -5 7 2
-4 7 -3 12 3 12 5 0 13 -5 16 -10 5 -8 11 -8 20 0 10 8 15 8 20 0 5 -8 11 -8
19 -1 7 6 16 8 20 4 10 -10 46 -11 46 -1 0 5 10 3 23 -3 21 -12 21 -11 7 6
-14 17 -13 17 5 8 11 -6 26 -8 34 -5 10 3 11 0 5 -9 -7 -12 -5 -12 9 0 14 11
17 11 17 0 0 -11 2 -11 10 1 9 13 11 13 20 0 9 -13 10 -13 10 0 0 13 1 13 10
0 9 -14 15 -7 11 14 -1 5 5 4 13 -4 9 -7 16 -9 16 -5 0 4 8 1 17 -6 15 -12 16
-12 8 1 -8 13 -7 13 8 1 12 -9 17 -10 17 -2 0 9 6 9 23 0 21 -12 21 -11 7 7
-15 18 -14 18 11 2 20 -12 29 -14 38 -5 8 8 11 7 11 -3 0 -13 2 -13 10 0 8 13
10 13 10 1 0 -11 4 -10 16 5 8 10 13 14 10 8 -3 -7 1 -14 9 -18 8 -3 15 -1 15
5 0 6 9 5 23 -2 21 -12 21 -11 7 6 -14 17 -13 17 5 8 11 -6 26 -8 34 -5 10 3
11 0 5 -9 -7 -12 -5 -12 9 0 14 11 17 11 17 0 0 -11 2 -11 10 1 9 13 11 13 20
0 9 -13 10 -13 10 0 0 13 1 13 10 0 9 -14 15 -7 11 14 -1 5 5 4 13 -4 9 -7 16
-9 16 -5 0 4 8 1 17 -6 15 -12 16 -12 8 1 -8 13 -7 13 8 1 12 -9 17 -10 17 -2
0 9 6 9 23 0 21 -12 21 -11 7 6 -14 17 -13 17 5 8 11 -6 26 -8 34 -5 10 3 11
0 5 -9 -7 -12 -5 -12 9 0 14 11 17 11 17 0 0 -11 2 -11 10 1 9 13 11 13 20 0
9 -13 10 -13 10 0 0 13 1 13 10 0 9 -14 15 -7 11 14 -1 5 5 4 13 -4 9 -7 16
-9 16 -5 0 4 8 1 17 -6 15 -12 16 -12 8 1 -8 13 -7 13 8 1 12 -9 17 -10 17 -2
0 9 6 9 23 0 21 -12 21 -11 7 6 -14 17 -14 18 8 6 12 -6 22 -9 22 -5 0 3 6 1
14 -5 10 -8 16 -9 21 -1 3 6 12 7 18 3 19 -12 37 -12 37 -1 0 7 5 6 14 -1 11
-9 16 -9 22 0 5 8 3 9 -6 4 -9 -6 -11 -4 -5 5 6 10 11 9 22 -5 7 -11 13 -14
13 -8 0 13 18 12 39 -1 10 -6 12 -5 7 2 -4 7 -3 12 3 12 5 0 13 -5 16 -10 5
-8 11 -8 20 0 10 8 15 8 20 0 5 -8 11 -8 19 -1 7 6 16 8 20 4 10 -10 46 -11
46 -1 0 5 10 3 23 -3 21 -12 21 -11 7 6 -14 17 -13 17 5 8 11 -6 26 -8 34 -5
10 3 11 0 5 -9 -7 -12 -5 -12 9 0 14 11 17 11 17 0 0 -11 2 -11 10 1 9 13 11
13 20 0 9 -13 10 -13 10 0 0 13 1 13 10 0 9 -14 15 -7 11 14 -1 5 5 4 13 -4 9
-7 16 -9 16 -5 0 4 8 1 17 -6 15 -12 16 -12 8 1 -8 13 -7 13 8 1 12 -9 17 -10
17 -2 0 9 6 9 23 0 21 -12 21 -11 7 7 -15 18 -14 18 11 2 20 -12 29 -14 38 -5
8 8 11 7 11 -3 0 -13 2 -13 10 0 8 13 10 13 10 1 0 -11 4 -10 16 5 8 10 13 14
10 8 -3 -7 1 -14 9 -18 8 -3 15 -1 15 5 0 6 9 5 23 -2 21 -12 21 -11 7 7 -15
18 -14 18 14 0 16 -10 26 -14 22 -8 -3 5 1 13 10 16 8 3 12 2 9 -4 -3 -5 1 -7
9 -4 10 4 14 16 12 35 -2 16 0 29 5 29 4 0 6 9 4 20 -2 11 1 20 7 20 6 0 8 13
6 30 -3 16 0 30 5 30 6 0 7 3 4 7 -4 3 -2 12 4 20 9 10 8 13 -2 13 -11 0 -11
2 -1 8 7 5 14 26 16 48 1 22 10 54 18 72 10 19 13 34 7 38 -6 4 -6 10 0 18 6
7 8 16 4 19 -3 4 -1 7 5 7 7 0 12 5 12 11 0 5 -6 7 -12 3 -7 -4 -4 2 6 14 11
12 15 22 9 22 -5 0 -10 7 -10 15 0 8 5 11 10 8 6 -4 8 0 4 10 -3 10 -2 17 4
17 6 0 7 5 4 10 -4 6 -1 17 5 25 10 12 10 15 -1 15 -11 0 -11 2 1 10 8 5 11
10 7 10 -4 0 -3 8 2 18 7 13 6 23 -2 32 -9 9 -9 11 0 6 13 -7 29 47 18 64 -3
5 -1 10 5 10 6 0 9 4 5 9 -3 5 -1 12 4 15 5 4 8 17 6 31 -1 14 1 25 6 25 5 0
6 7 3 15 -4 8 -2 21 4 28 6 6 9 26 8 44 -1 17 1 30 5 27 4 -2 9 3 13 11 3 8 0
15 -7 15 -7 0 -3 7 7 15 12 9 15 15 7 15 -9 0 -10 4 -4 13 6 6 9 22 8 35 -1
12 2 22 7 22 5 0 6 5 3 10 -3 6 0 10 7 10 9 0 9 3 -2 10 -11 7 -11 10 -2 10 7
0 11 4 7 9 -3 5 -1 12 3 15 5 3 8 17 7 31 -2 14 0 25 4 25 4 0 7 15 8 33 0 33
7 58 24 91 8 14 7 16 -2 11 -8 -6 -10 -4 -3 6 4 8 10 22 11 31 6 36 8 43 18
50 6 5 5 8 -4 8 -10 0 -11 3 -2 14 6 7 9 21 5 30 -3 9 -2 16 3 16 5 0 10 6 10
13 0 6 4 21 9 31 6 15 4 17 -7 11 -12 -8 -12 -6 -1 8 8 9 11 21 7 27 -3 5 -1
10 5 10 6 0 10 8 8 18 -1 9 0 22 4 27 3 6 8 26 9 45 2 19 11 41 19 48 8 8 9
11 3 7 -15 -7 -18 11 -4 19 5 4 8 14 6 24 -1 9 2 23 8 30 6 8 5 12 -4 12 -11
0 -11 2 -2 8 7 4 14 17 16 27 1 11 6 26 10 33 5 7 3 12 -3 12 -6 0 -8 5 -5 10
4 6 11 7 17 4 7 -5 8 -2 2 7 -12 19 -14 40 -4 34 5 -3 11 -1 15 5 3 5 1 10 -5
10 -7 0 -8 6 -2 18 5 9 8 25 7 35 -2 9 1 17 6 17 4 0 6 7 3 15 -4 9 0 15 7 15
11 0 11 3 -1 10 -8 5 -10 10 -5 10 10 0 14 14 17 58 1 6 6 12 12 12 6 0 4 5
-4 10 -8 5 -10 10 -4 10 7 0 12 6 11 13 -1 41 4 58 16 51 8 -5 8 -2 -2 9 -7 9
-9 17 -4 17 6 0 10 13 11 30 0 16 4 35 8 42 8 13 12 32 15 80 1 15 5 25 9 23
4 -2 5 7 2 20 -2 14 0 25 5 25 5 0 9 10 8 23 -1 12 1 27 5 32 6 9 8 23 12 73
1 6 6 12 11 12 5 0 7 7 4 15 -4 8 -2 17 3 20 4 3 7 13 5 23 -1 9 2 22 7 29 5
7 5 14 -1 17 -6 4 -3 20 9 41 11 19 15 35 9 35 -6 0 -6 7 1 20 6 11 8 25 5 30
-3 6 -1 10 6 10 7 0 9 3 6 7 -4 3 -1 13 6 21 10 13 9 14 -3 7 -12 -7 -13 -6
-4 6 6 8 10 24 8 37 -3 15 1 22 14 23 9 0 12 3 5 5 -8 4 -9 13 -4 27 5 12 7
30 6 39 -2 10 2 21 8 25 11 7 13 20 18 95 1 15 5 26 8 23 4 -2 8 5 8 16 1 12
-3 17 -10 13 -7 -3 -4 1 7 10 10 8 15 19 12 25 -4 5 -2 12 4 16 5 3 10 12 10
18 0 7 -4 6 -10 -3 -5 -8 -10 -10 -10 -4 0 5 4 14 9 20 6 5 11 20 13 34 2 14
7 30 11 37 4 6 1 14 -5 16 -10 4 -10 6 0 6 7 1 10 6 7 11 -3 6 -1 10 5 10 6 0
8 4 5 10 -3 5 -1 19 5 30 8 15 8 20 -1 20 -8 0 -9 4 0 13 6 8 8 17 4 20 -3 4
-1 7 5 7 6 0 9 9 7 20 -2 11 0 20 5 20 5 0 7 11 4 24 -2 14 3 31 12 40 11 12
12 16 2 16 -10 0 -10 2 1 9 11 7 11 9 0 14 -9 4 -10 6 -2 6 7 1 10 8 7 16 -4
8 -1 15 5 15 9 0 9 5 0 21 -8 15 -8 19 0 15 6 -4 12 -1 12 6 1 7 2 18 4 23 1
6 3 25 3 44 2 25 6 32 18 27 10 -4 13 -2 8 6 -10 16 -11 68 -1 68 4 0 7 6 7
14 0 11 -297 14 -1940 14 -1067 0 -1940 -1 -1941 -2z"/>
</g>
</svg>
